<?xml version="1.0" encoding="utf-8"?>
<!-- Generator: Adobe Illustrator 16.0.0, SVG Export Plug-In . SVG Version: 6.00 Build 0)  -->
<!DOCTYPE svg [
	<!ENTITY ns_flows "http://ns.adobe.com/Flows/1.0/">
	<!ENTITY ns_extend "http://ns.adobe.com/Extensibility/1.0/">
	<!ENTITY ns_ai "http://ns.adobe.com/AdobeIllustrator/10.0/">
	<!ENTITY ns_graphs "http://ns.adobe.com/Graphs/1.0/">
]>
<svg version="1.2" baseProfile="tiny" id="Layer_1" xmlns:x="&ns_extend;" xmlns:i="&ns_ai;" xmlns:graph="&ns_graphs;"
	 xmlns="http://www.w3.org/2000/svg" xmlns:xlink="http://www.w3.org/1999/xlink" xmlns:a="http://ns.adobe.com/AdobeSVGViewerExtensions/3.0/"
	 x="0px" y="0px" width="595.28px" height="841.89px" viewBox="0 0 595.28 841.89" xml:space="preserve">
<rect x="189.425" y="218.536" fill="none" width="182.396" height="182.397"/>
<g>
	<g>
		<g>
			<path fill="#FFFFFF" d="M217.393,339.516c-0.319,0.599-0.728,1.06-1.213,1.367c-0.484,0.309-1.047,0.463-1.671,0.463
				c-0.893,0-1.641-0.31-2.226-0.918c-0.585-0.611-0.883-1.396-0.883-2.336c0-0.939,0.297-1.726,0.884-2.339
				c0.584-0.608,1.333-0.919,2.225-0.919c0.581,0,1.115,0.136,1.586,0.403c0.468,0.269,0.831,0.646,1.079,1.117l0.065,0.124
				l1.069-0.765l-0.061-0.095c-0.406-0.636-0.939-1.132-1.585-1.477c-0.647-0.343-1.371-0.517-2.153-0.517
				c-1.265,0-2.327,0.425-3.157,1.264c-0.831,0.839-1.252,1.917-1.252,3.205c0,1.286,0.419,2.363,1.249,3.199
				c0.828,0.839,1.892,1.265,3.16,1.265c0.86,0,1.64-0.203,2.315-0.599c0.678-0.399,1.218-0.975,1.607-1.71l0.047-0.093
				l-1.021-0.761L217.393,339.516z"/>
			<path fill="#FFFFFF" d="M223.801,333.623c-1.264,0-2.328,0.425-3.158,1.264c-0.831,0.839-1.252,1.917-1.252,3.205
				c0,1.286,0.42,2.363,1.248,3.199c0.83,0.839,1.893,1.265,3.162,1.265c1.275,0,2.343-0.426,3.177-1.265
				c0.832-0.836,1.255-1.914,1.255-3.199c0-1.282-0.424-2.36-1.258-3.201C226.138,334.051,225.071,333.623,223.801,333.623z
				 M223.801,341.346c-0.894,0-1.642-0.31-2.226-0.918c-0.586-0.611-0.884-1.396-0.884-2.336c0-0.939,0.297-1.726,0.884-2.339
				c0.583-0.608,1.333-0.919,2.226-0.919c0.897,0,1.649,0.308,2.229,0.917c0.583,0.611,0.879,1.398,0.879,2.342
				c0,0.94-0.296,1.726-0.882,2.336C225.442,341.036,224.694,341.346,223.801,341.346z"/>
			<polygon fill="#FFFFFF" points="235.721,339.798 230.519,333.803 229.803,333.803 229.803,342.339 231.072,342.339 
				231.072,336.341 236.299,342.339 237,342.339 237,333.803 235.721,333.803 			"/>
			<path fill="#FFFFFF" d="M245.863,339.516c-0.319,0.599-0.727,1.06-1.212,1.367c-0.484,0.309-1.047,0.463-1.671,0.463
				c-0.894,0-1.642-0.31-2.228-0.918c-0.585-0.611-0.881-1.396-0.881-2.336c0-0.939,0.296-1.726,0.881-2.339
				c0.585-0.608,1.333-0.919,2.228-0.919c0.582,0,1.115,0.136,1.584,0.403c0.47,0.269,0.834,0.646,1.081,1.117l0.064,0.124
				l1.069-0.765l-0.062-0.095c-0.405-0.636-0.938-1.132-1.584-1.477c-0.645-0.343-1.371-0.517-2.152-0.517
				c-1.264,0-2.328,0.425-3.158,1.264c-0.831,0.839-1.252,1.917-1.252,3.205c0,1.286,0.42,2.363,1.248,3.199
				c0.829,0.839,1.892,1.265,3.162,1.265c0.861,0,1.639-0.203,2.314-0.599c0.679-0.399,1.221-0.975,1.608-1.71l0.048-0.093
				l-1.021-0.761L245.863,339.516z"/>
			<polygon fill="#FFFFFF" points="249.792,338.387 253.114,338.387 253.114,337.191 249.792,337.191 249.792,334.999 
				255.285,334.999 255.285,333.803 248.523,333.803 248.523,342.339 255.622,342.339 255.622,341.142 249.792,341.142 			"/>
			<path fill="#FFFFFF" d="M261.751,333.803h-4.876v8.536h1.271v-3.63h3.74c0.777,0,1.407-0.237,1.876-0.704
				c0.471-0.466,0.709-1.085,0.709-1.836c0-0.73-0.249-1.314-0.738-1.737C263.249,334.015,262.583,333.803,261.751,333.803z
				 M258.146,334.999h3.59c0.453,0,0.805,0.111,1.048,0.332c0.244,0.222,0.364,0.526,0.364,0.93c0,0.413-0.118,0.714-0.361,0.923
				c-0.243,0.209-0.615,0.316-1.105,0.316h-3.536V334.999z"/>
			<polygon fill="#FFFFFF" points="264.743,334.999 268.228,334.999 268.228,342.339 269.506,342.339 269.506,334.999 
				272.999,334.999 272.999,333.803 264.743,333.803 			"/>
			<polygon fill="#FFFFFF" points="283.407,337.079 278.758,337.079 278.758,333.803 277.474,333.803 277.474,342.339 
				278.758,342.339 278.758,338.273 283.407,338.273 283.407,342.339 284.686,342.339 284.686,333.803 283.407,333.803 			"/>
			<path fill="#FFFFFF" d="M290.702,333.623c-1.265,0-2.329,0.425-3.158,1.264c-0.831,0.839-1.251,1.917-1.251,3.205
				c0,1.286,0.418,2.362,1.247,3.199c0.829,0.839,1.891,1.265,3.163,1.265c1.274,0,2.344-0.426,3.175-1.265
				c0.835-0.836,1.256-1.914,1.256-3.199c0-1.282-0.422-2.36-1.258-3.201C293.04,334.051,291.971,333.623,290.702,333.623z
				 M290.702,341.346c-0.893,0-1.643-0.31-2.228-0.918c-0.585-0.611-0.882-1.396-0.882-2.336c0-0.939,0.297-1.726,0.882-2.339
				c0.585-0.608,1.334-0.919,2.228-0.919c0.898,0,1.648,0.308,2.229,0.917c0.585,0.611,0.881,1.398,0.881,2.342
				c0,0.94-0.298,1.726-0.884,2.336C292.343,341.036,291.595,341.346,290.702,341.346z"/>
			<polygon fill="#FFFFFF" points="301.083,338.783 297.801,333.803 296.658,333.803 296.658,342.339 297.913,342.339 
				297.913,336.138 301.083,340.863 304.254,336.138 304.254,342.339 305.517,342.339 305.517,333.803 304.392,333.803 			"/>
			<polygon fill="#FFFFFF" points="308.972,341.142 308.972,338.387 312.29,338.387 312.29,337.191 308.972,337.191 
				308.972,334.999 314.461,334.999 314.461,333.803 307.701,333.803 307.701,342.339 314.8,342.339 314.8,341.142 			"/>
		</g>
		<path fill="#FFFFFF" d="M283.666,328.019l31.265,0.027l-23.897-47.699c0,0-16.972,34.899-19.837,40.74l-9.164-13.244
			c7.92-0.436,12.024-5.01,12.682-12.849c0.606-7.26-3.41-13.763-11.988-14.543l-17.609-0.01v0.021
			c0,0.794-0.011,4.842-0.024,10.265c4.203,3.037,6.933,7.917,6.933,13.428c0,5.542-2.658,10.409-6.902,13.441
			c-0.016,6.045,0.036,10.492,0.036,10.492l7.828-0.068l-0.066-20.176l14.019,20.171l9.985-0.013c0,0,13.856-30.563,14.276-31.466
			c0.254,0.514,8.72,18.427,11.997,24.781l-16.566,0.046L283.666,328.019z M260.117,301.006l-7.107-0.039
			c0.009-0.998,0.018-1.601,0.026-1.962l0.072-11.956c0,0,7.673-0.097,8.772,0c3.323,0.292,4.921,2.565,4.746,7.319
			c-0.137,3.695-1.442,6.146-5.727,6.568C260.617,300.964,260.361,300.988,260.117,301.006z"/>
		<path fill="#FFFFFF" d="M218.919,309.573c-0.195-0.557-0.363-1.125-0.498-1.708h-0.078
			C218.501,308.448,218.697,309.016,218.919,309.573z"/>
		<path fill="#FFFFFF" d="M235.005,287.469c1.766,0,3.47,0.265,5.071,0.753v-7.638l-0.492-0.089
			c-1.53-0.275-3.076-0.413-4.594-0.413c-13.76,0-24.955,10.798-24.955,24.07c0,13.274,11.194,24.074,24.955,24.074
			c1.519,0,3.064-0.14,4.594-0.414l0.492-0.089v-7.638c-1.601,0.488-3.305,0.754-5.071,0.754c-7.463,0-13.79-4.716-16.086-11.267
			c-0.223-0.557-0.418-1.125-0.576-1.708h0.078l0,0l16.161-0.039l0.039-6.544h-16.368
			C219.645,293.439,226.605,287.469,235.005,287.469z"/>
	</g>
	<path fill-rule="evenodd" fill="#FFFFFF" d="M305.674,250.281c-25.018-6.26-47.434,4.411-60.581,21.072h0.691
		c14.434-16.556,36.584-21.478,56.759-14.531c23.111,7.959,38.061,30.099,37.122,54.853c-0.921,24.25-17.616,45.403-40.659,51.329
		c-13.282,3.417-26.126,1.983-38.319-4.456c-5.26-2.777-11.102-6.221-15.008-10.267l-0.636,0.01
		c10.588,13.374,27.726,23.839,49.677,22.61c29.334-1.635,52.987-24.743,56.075-54.278
		C354.595,280.219,331.768,256.814,305.674,250.281z"/>
</g>
</svg>
