<?xml version="1.0" encoding="utf-8"?>
<!-- Generator: Adobe Illustrator 16.0.0, SVG Export Plug-In . SVG Version: 6.00 Build 0)  -->
<!DOCTYPE svg [
	<!ENTITY ns_flows "http://ns.adobe.com/Flows/1.0/">
	<!ENTITY ns_extend "http://ns.adobe.com/Extensibility/1.0/">
	<!ENTITY ns_ai "http://ns.adobe.com/AdobeIllustrator/10.0/">
	<!ENTITY ns_graphs "http://ns.adobe.com/Graphs/1.0/">
]>
<svg version="1.2" baseProfile="tiny" id="Layer_1" xmlns:x="&ns_extend;" xmlns:i="&ns_ai;" xmlns:graph="&ns_graphs;"
	 xmlns="http://www.w3.org/2000/svg" xmlns:xlink="http://www.w3.org/1999/xlink" xmlns:a="http://ns.adobe.com/AdobeSVGViewerExtensions/3.0/"
	 x="0px" y="0px" width="595.28px" height="841.89px" viewBox="0 0 595.28 841.89" xml:space="preserve">
<rect x="195.884" y="259.877" fill="none" width="183.763" height="183.766"/>
<g>
	<g>
		<path fill="#C3996B" d="M237.707,383.063c-0.354,0.665-0.809,1.177-1.348,1.518c-0.538,0.342-1.16,0.515-1.854,0.515
			c-0.991,0-1.821-0.345-2.47-1.02c-0.654-0.678-0.983-1.55-0.983-2.594c0-1.042,0.329-1.916,0.983-2.598
			c0.645-0.675,1.479-1.021,2.47-1.021c0.645,0,1.239,0.15,1.76,0.448c0.523,0.298,0.925,0.717,1.199,1.239l0.071,0.138l1.186-0.849
			l-0.068-0.106c-0.448-0.706-1.042-1.257-1.758-1.64c-0.718-0.38-1.521-0.574-2.391-0.574c-1.403,0-2.584,0.472-3.504,1.403
			c-0.923,0.932-1.391,2.129-1.391,3.559c0,1.428,0.465,2.622,1.385,3.552c0.919,0.932,2.101,1.404,3.51,1.404
			c0.956,0,1.821-0.225,2.571-0.665c0.751-0.443,1.352-1.082,1.785-1.899l0.053-0.103l-1.133-0.845L237.707,383.063z"/>
		<path fill="#C3996B" d="M244.823,376.52c-1.406,0-2.584,0.472-3.507,1.403c-0.923,0.932-1.392,2.129-1.392,3.559
			c0,1.428,0.468,2.622,1.388,3.552c0.92,0.932,2.101,1.404,3.511,1.404c1.414,0,2.599-0.473,3.525-1.404
			c0.927-0.93,1.393-2.124,1.393-3.552c0-1.423-0.47-2.62-1.396-3.554C247.417,376.996,246.232,376.52,244.823,376.52z
			 M244.823,385.095c-0.995,0-1.825-0.345-2.474-1.02c-0.65-0.678-0.981-1.55-0.981-2.594c0-1.042,0.331-1.916,0.981-2.598
			c0.649-0.675,1.479-1.021,2.474-1.021c0.996,0,1.826,0.343,2.473,1.018c0.648,0.678,0.978,1.552,0.978,2.601
			c0,1.044-0.329,1.916-0.981,2.594C246.644,384.75,245.813,385.095,244.823,385.095z"/>
		<polygon fill="#C3996B" points="258.057,383.376 252.28,376.72 251.486,376.72 251.486,386.197 252.894,386.197 252.894,379.537 
			258.697,386.197 259.475,386.197 259.475,376.72 258.057,376.72 		"/>
		<path fill="#C3996B" d="M269.313,383.063c-0.354,0.665-0.806,1.177-1.345,1.518c-0.538,0.342-1.163,0.515-1.854,0.515
			c-0.994,0-1.825-0.345-2.473-1.02c-0.648-0.678-0.981-1.55-0.981-2.594c0-1.042,0.333-1.916,0.981-2.598
			c0.648-0.675,1.479-1.021,2.473-1.021c0.644,0,1.237,0.15,1.76,0.448c0.52,0.298,0.923,0.717,1.199,1.239l0.071,0.138l1.185-0.849
			l-0.068-0.106c-0.45-0.706-1.041-1.257-1.76-1.64c-0.713-0.38-1.521-0.574-2.387-0.574c-1.406,0-2.584,0.472-3.507,1.403
			c-0.923,0.932-1.388,2.129-1.388,3.559c0,1.428,0.465,2.622,1.385,3.552c0.919,0.932,2.101,1.404,3.51,1.404
			c0.953,0,1.818-0.225,2.569-0.665c0.752-0.443,1.353-1.082,1.783-1.899l0.056-0.103l-1.135-0.845L269.313,383.063z"/>
		<polygon fill="#C3996B" points="273.676,381.809 277.365,381.809 277.365,380.483 273.676,380.483 273.676,378.047 
			279.773,378.047 279.773,376.72 272.266,376.72 272.266,386.197 280.147,386.197 280.147,384.869 273.676,384.869 		"/>
		<path fill="#C3996B" d="M286.953,376.72h-5.411v9.477h1.41v-4.03h4.152c0.862,0,1.563-0.263,2.083-0.78
			c0.523-0.519,0.784-1.205,0.784-2.038c0-0.811-0.272-1.46-0.815-1.93C288.618,376.956,287.876,376.72,286.953,376.72z
			 M282.952,378.047h3.987c0.501,0,0.895,0.124,1.161,0.369c0.271,0.246,0.404,0.584,0.404,1.032c0,0.458-0.129,0.792-0.4,1.024
			c-0.27,0.232-0.682,0.351-1.224,0.351h-3.927V378.047z"/>
		<polygon fill="#C3996B" points="290.275,378.047 294.146,378.047 294.146,386.197 295.564,386.197 295.564,378.047 
			299.44,378.047 299.44,376.72 290.275,376.72 		"/>
		<polygon fill="#C3996B" points="310.997,380.357 305.836,380.357 305.836,376.72 304.408,376.72 304.408,386.197 305.836,386.197 
			305.836,381.684 310.997,381.684 310.997,386.197 312.413,386.197 312.413,376.72 310.997,376.72 		"/>
		<path fill="#C3996B" d="M319.096,376.52c-1.403,0-2.584,0.472-3.504,1.403c-0.924,0.932-1.392,2.129-1.392,3.559
			c0,1.428,0.465,2.622,1.385,3.552c0.92,0.932,2.101,1.404,3.511,1.404c1.414,0,2.602-0.473,3.525-1.404
			c0.926-0.93,1.396-2.124,1.396-3.552c0-1.423-0.47-2.62-1.399-3.554C321.688,376.996,320.503,376.52,319.096,376.52z
			 M319.096,385.095c-0.991,0-1.822-0.345-2.472-1.02c-0.652-0.678-0.981-1.55-0.981-2.594c0-1.042,0.329-1.916,0.981-2.598
			c0.649-0.675,1.48-1.021,2.472-1.021c0.995,0,1.829,0.343,2.477,1.018c0.648,0.678,0.974,1.552,0.974,2.601
			c0,1.044-0.329,1.916-0.98,2.594C320.917,384.75,320.086,385.095,319.096,385.095z"/>
		<polygon fill="#C3996B" points="330.623,382.25 326.974,376.72 325.709,376.72 325.709,386.197 327.103,386.197 327.103,379.313 
			330.623,384.559 334.138,379.313 334.138,386.197 335.541,386.197 335.541,376.72 334.292,376.72 		"/>
		<polygon fill="#C3996B" points="339.377,384.869 339.377,381.809 343.063,381.809 343.063,380.483 339.377,380.483 
			339.377,378.047 345.476,378.047 345.476,376.72 337.968,376.72 337.968,386.197 345.851,386.197 345.851,384.869 		"/>
	</g>
	<path fill="#C3996B" d="M311.283,370.298l34.712,0.03l-26.531-52.956c0,0-18.843,38.745-22.023,45.23l-10.173-14.705
		c8.791-0.483,13.348-5.562,14.077-14.264c0.673-8.06-3.784-15.28-13.31-16.146l-19.549-0.012v0.023
		c0,0.881-0.01,5.375-0.028,11.396c4.667,3.373,7.698,8.791,7.698,14.909c0,6.153-3.064,11.602-7.777,14.97
		c-0.018,6.71-0.031,11.514-0.031,11.514l8.879,0.01l-0.075-22.4l15.564,22.396l11.087-0.015c0,0,15.382-33.932,15.849-34.934
		c0.282,0.571,9.68,20.458,13.317,27.512l-18.39,0.052L311.283,370.298z M285.139,340.309l-7.891-0.043
		c0.011-1.107,0.021-1.776,0.028-2.179l0.083-13.273c0,0,8.518-0.107,9.739,0c3.689,0.324,5.464,2.849,5.271,8.126
		c-0.154,4.102-1.604,6.823-6.359,7.292C285.694,340.263,285.412,340.288,285.139,340.309z"/>
	<path fill="#C3996B" d="M239.401,349.819c-0.218-0.618-0.402-1.25-0.553-1.896h-0.087
		C238.937,348.569,239.153,349.201,239.401,349.819z"/>
	<path fill="#C3996B" d="M257.26,325.28c1.96,0,3.851,0.293,5.63,0.836v-8.48l-0.544-0.099c-1.701-0.305-3.415-0.458-5.1-0.458
		c-15.278,0-27.707,11.988-27.707,26.724s12.429,26.726,27.707,26.726c1.686,0,3.399-0.155,5.1-0.46l0.544-0.099v-8.48
		c-1.779,0.543-3.669,0.837-5.63,0.837c-8.288,0-15.308-5.235-17.858-12.509c-0.248-0.618-0.465-1.25-0.64-1.896h0.087l0,0
		l17.941-0.043l0.043-7.265h-18.169C240.207,331.908,247.936,325.28,257.26,325.28z"/>
</g>
</svg>
