<?xml version="1.0" encoding="utf-8" ?><svg xmlns="http://www.w3.org/2000/svg" xmlns:xlink="http://www.w3.org/1999/xlink" width="1024" height="1024" viewBox="0 0 1024 1024"><path fill="#3D3328" d="M307.121 702.435C321.063 703.028 339.482 702.536 353.643 702.536L444.065 702.523L717.535 702.543C717.271 711.819 717.196 720.716 717.393 729.979C718.469 780.457 716.363 831.554 717.494 881.96L619.548 881.927C610.74 881.945 584.569 881.203 577.303 882.42C576.798 875.818 577.044 867.511 577.084 860.75C576.97 834.889 577.057 809.027 577.344 783.168C577.647 768.107 578.782 752.418 567.509 741.132C555.659 729.267 533.438 719.303 516.657 719.265C500.085 719.228 470.632 727.396 458.187 739.221C452.989 744.16 449.968 751.622 448.716 758.526C445.006 778.995 446.182 801.72 446.434 822.418L446.58 882.146C438.769 881.868 430.698 882.276 422.871 882.45C384.511 883.301 345.4 881.401 307.128 882.537L307.121 702.435Z"/><path fill="#3D3328" d="M507.407 465.807C509.965 466.527 516.127 474.673 518.947 476.938C534.051 489.062 553.328 495.696 571.408 502.068C618.533 518.677 673.95 545.605 676.003 602.992C676.39 613.797 675.689 645.434 669.459 652.531C666.247 656.191 614.921 654.762 607.863 654.754L507.875 654.738L406.701 654.748C389.883 654.756 372.748 654.978 355.948 654.66C353.586 654.616 347.467 653.9 346.082 652.288C339.493 644.618 338.339 620.663 338.435 610.834C338.529 598.724 340.906 586.74 345.442 575.511C359.025 541.897 384.255 528.916 415.124 514.906C428.884 508.763 442.693 502.729 456.549 496.805C478.878 487.155 489.621 483.336 507.407 465.807Z"/><path fill="#3D3328" d="M649.43 142.341C651.739 144.405 657.573 149.881 659.761 151.402C670.419 158.809 682.411 164.074 690.544 174.729C708.128 197.767 707.927 212.029 705.111 238.568C706.505 239.221 708.069 240.294 709.398 241.144C709.946 249.429 712.945 259.883 701.985 260.604C701.298 297.217 701.913 336.348 701.954 373.048L649.751 372.893L594.99 372.952C595.296 360.308 595.057 346.601 595.064 333.886L595.009 260.876C591.23 259.833 589.313 259.859 587.707 255.689C586.119 251.565 586.274 246.905 587.983 242.837C589.236 239.853 590.974 239.478 593.825 238.406C589.962 208.994 596.622 179.665 622.425 161.577C633.183 154.036 640.374 152.721 649.43 142.341ZM615.345 352.848C621.001 352.362 626.93 352.525 632.625 352.555L642.991 352.59L643.079 313.216C643.155 299.577 647.124 270.721 626.692 271.478C615.437 277.005 615.931 285.011 615.29 296.315C614.226 315.09 615.585 334.096 615.345 352.848ZM655.048 352.571L672.75 352.573C676.003 352.562 679.305 352.441 682.518 352.898C682.472 339.075 683.035 325.292 682.956 311.527C682.879 298.344 685.884 270.342 666.329 271.45C653.38 277.885 655.452 288.012 654.975 300.638C654.324 317.861 655.411 335.364 655.048 352.571Z"/><path fill="#3D3328" d="M595.505 382.257C607.16 381.724 621.81 382.081 633.69 382.07L702.439 382.06C701.82 401.088 702.126 421.454 702.111 440.57L702.063 538.192C702.064 547.082 703.341 583.78 701.366 590.055C694.867 588.762 686.39 567.325 681.837 560.272C668.055 538.922 648.561 520.68 626.395 508.27C615.051 501.919 604.63 499.578 595.084 489.645C594.711 483.041 594.931 474.608 594.872 467.76L594.843 418.281C594.878 411.74 594.586 387.447 595.505 382.257Z"/><path fill="#3D3328" d="M321.852 667.211C326.234 666.718 336.831 666.998 341.732 667.005L380.489 667.058L508.355 667.05L642.16 667.106L681.423 667.025C705.626 666.978 709.166 664.812 729.289 678.611C722.263 685.148 710.11 690.507 700.25 690.514C679.064 690.768 657.755 690.486 636.552 690.608L423.147 690.681L354.061 690.592C341.592 690.578 327.821 690.909 315.48 689.665C309.16 689.028 299.547 682.546 294.015 679.079C304.681 671.391 308.825 668.333 321.852 667.211Z"/><path fill="#3D3328" d="M502.524 376.089C504.005 377.866 491.648 397.392 494.944 407.606C505.203 439.397 523.013 437.223 549.653 430.578C545.954 437.176 541.952 440.88 535.752 444.94C534.75 445.447 533.738 445.935 532.717 446.403C523.815 450.442 512.849 450.608 503.735 447.218C476.748 437.177 469.217 398.223 493.34 380.897C496.423 378.682 499.026 377.558 502.524 376.089Z"/></svg>