<?xml version="1.0" encoding="utf-8" ?><svg xmlns="http://www.w3.org/2000/svg" xmlns:xlink="http://www.w3.org/1999/xlink" width="1024" height="1024" viewBox="0 0 1024 1024"><path transform="scale(0.533333 0.533333)" d="M576.486 1317.53C657.692 1316.39 741.558 1317.55 823.045 1317.52L1345.29 1317.5L1345.27 1653.7L1081.99 1653.71L1081.88 1610.86C1081.57 1573.28 1081.53 1535.71 1081.77 1498.13C1082.18 1462.71 1090.75 1414.76 1063.35 1389.02C1040.55 1367.61 997.833 1347.31 965.435 1348.63C935.113 1350.05 880.133 1364.82 858.484 1386.11C831.828 1412.33 837.032 1484.86 837.07 1520C837.048 1564.85 837.255 1609.7 837.692 1654.55L576.383 1654.64C575.511 1611.21 576.789 1566.55 576.406 1522.89C575.806 1454.56 575.06 1385.82 576.486 1317.53Z"/><path transform="scale(0.533333 0.533333)" d="M952.33 872.532C960.265 879.07 963.218 888.862 976.424 897.938C1023.78 930.484 1079.23 940.686 1131.2 965.62C1186.14 991.982 1236.76 1025.22 1258.71 1085.28C1271.99 1121.62 1271.37 1191.94 1254.67 1226.38C1237.72 1229.64 1182.95 1227.83 1162.25 1227.85L951.094 1227.59L763.365 1227.91L702.554 1228.09C690.652 1228.13 654.818 1229.71 648.227 1223.29C637.062 1212.42 634.591 1161.9 634.553 1146.82C634.26 1089.97 661.512 1036.5 707.681 1003.33C731.148 986.28 764.437 971.753 790.953 960.096L862.861 928.547C905.682 909.725 918.927 905.947 952.33 872.532Z"/><path transform="scale(0.533333 0.533333)" d="M1218.04 266.941C1231.81 283.729 1242.09 286.647 1259.91 297.874C1296.81 321.121 1323.13 360 1325.43 404.158C1326.26 419.891 1324.09 432.072 1321.43 447.477C1323.93 448.471 1329.56 450.753 1330 453.784C1331.08 461.15 1332.01 479.304 1328.21 485.727C1326.82 488.082 1319.08 488.391 1316.29 488.61L1316.26 699.365L1214.07 699.085L1115.64 699.376L1115.64 488.582C1111.57 488.537 1109.51 488.834 1105.81 487.382C1098.39 480.831 1098.69 459.291 1104.51 451.538C1106.81 448.49 1109.99 448.354 1113.43 447.882C1112.1 441.154 1111.24 434.34 1110.87 427.49C1108.07 379.669 1127.81 329.533 1168.09 302.299C1192.16 286.023 1197.09 290.591 1218.04 266.941ZM1154.2 661.467L1183.59 661.61L1205.57 661.373L1205.68 583.629C1205.78 557.94 1213.31 508.824 1175.81 509.085C1168.3 512.459 1161.27 516.247 1158.09 524.364C1149.98 544.999 1153.81 634.41 1154.2 661.467ZM1228.4 661.522L1260.47 661.568L1279.7 661.501L1279.82 587.811C1280.01 564.846 1287.58 509.17 1252.84 509.088C1251.57 509.095 1250.29 509.143 1249.02 509.232C1240.35 513.883 1233.1 518.315 1230.78 528.673C1226.82 546.335 1228.2 570.751 1228.24 589.311L1228.4 661.522Z"/><path transform="scale(0.533333 0.533333)" d="M1116.78 716.536C1152.77 716.389 1188.76 716.561 1224.75 717.055L1316.89 716.589C1318.12 787.488 1316.88 862.363 1316.92 933.655L1316.99 1039.25C1317 1050.66 1318.34 1098.22 1314.95 1106.19C1303.48 1103.44 1296.13 1082.88 1291.07 1073.06C1260.28 1013.36 1207.7 966.3 1146.56 939.137C1134.5 933.78 1123.39 928.126 1115.52 917.222C1114.66 879.233 1114.36 841.234 1114.59 803.236C1114.59 778.24 1114.08 741.03 1116.78 716.536Z"/><path transform="scale(0.533333 0.533333)" d="M606.582 1251.04C618.084 1249.25 649.158 1251.61 663.241 1251.45L855.25 1251.04L1187.58 1251.37L1280.22 1251.26C1325.99 1251.35 1329 1246.45 1368.56 1272.49C1345.59 1285.88 1344.68 1291.72 1316.49 1294.56C1296 1295.59 1280.57 1294.73 1260.47 1294.78L1170.02 1295.48L865.988 1295.49C799.893 1295.86 733.795 1295.62 667.704 1294.75C642.924 1294.41 616.384 1295.73 591.862 1293.43C580.157 1292.34 562.032 1279.91 551.545 1273.46C573.598 1257.83 579.541 1252.87 606.582 1251.04Z"/><path transform="scale(0.533333 0.533333)" d="M942.192 704.894L943.483 705.36C943.271 708.072 940.266 714.245 938.932 716.877C931.562 731.896 922.807 752.188 928.976 769.178C948.949 824.186 985.838 820.288 1031.07 806.783C1022.89 821.446 1016.85 826.398 1002.95 835.257C965.755 853.36 923.061 839.87 904.825 802.325C896.247 784.589 895.134 764.154 901.734 745.591C909.301 724.242 922.588 714.22 942.192 704.894Z"/></svg>